<?xml version="1.0" encoding="utf-8"?>
<svg viewBox="421.013 5.508 128.122 30.419" xmlns="http://www.w3.org/2000/svg">
  <path d="M 453.814 35.353 L 446.534 35.353 L 446.454 20.513 L 439.254 32.593 L 435.734 32.593 L 428.574 20.913 L 428.574 35.353 L 421.254 35.353 L 421.254 7.353 L 427.774 7.353 L 437.614 23.513 L 447.214 7.353 L 453.734 7.353 L 453.814 35.353 ZM 474.24 13.673 L 481.84 13.673 L 481.84 35.353 L 474.6 35.353 L 474.6 33.033 C 473.8 33.913 472.84 34.58 471.72 35.033 C 470.6 35.486 469.413 35.713 468.16 35.713 C 465.36 35.713 463.127 34.886 461.46 33.233 C 459.793 31.58 458.96 29.1 458.96 25.793 L 458.96 13.673 L 466.56 13.673 L 466.56 24.553 C 466.56 26.18 466.867 27.366 467.48 28.113 C 468.093 28.86 468.987 29.233 470.16 29.233 C 471.36 29.233 472.34 28.813 473.1 27.973 C 473.86 27.133 474.24 25.846 474.24 24.113 L 474.24 13.673 ZM 502.63 35.353 L 496.55 27.753 L 494.31 30.033 L 494.31 35.353 L 486.71 35.353 L 486.71 5.673 L 494.31 5.673 L 494.31 21.233 L 502.07 13.673 L 511.07 13.673 L 502.07 22.953 L 511.83 35.353 L 502.63 35.353 ZM 528.94 13.673 L 536.54 13.673 L 536.54 35.353 L 529.3 35.353 L 529.3 33.033 C 528.5 33.913 527.54 34.58 526.42 35.033 C 525.3 35.486 524.114 35.713 522.86 35.713 C 520.06 35.713 517.827 34.886 516.16 33.233 C 514.494 31.58 513.66 29.1 513.66 25.793 L 513.66 13.673 L 521.26 13.673 L 521.26 24.553 C 521.26 26.18 521.567 27.366 522.18 28.113 C 522.794 28.86 523.687 29.233 524.86 29.233 C 526.06 29.233 527.04 28.813 527.8 27.973 C 528.56 27.133 528.94 25.846 528.94 24.113 L 528.94 13.673 ZM 541.41 35.353 L 541.41 5.673 L 549.01 5.673 L 549.01 35.353 L 541.41 35.353 Z" transform="matrix(1, 0, 0, 1, 0, 0)" style="white-space: pre;"/>
</svg>