<?xml version="1.0" encoding="utf-8"?>
<svg viewBox="419.234 2.974 119.826 40.808" xmlns="http://www.w3.org/2000/svg">
  <path d="M 431.094 35.913 C 428.827 35.913 426.627 35.633 424.494 35.073 C 422.361 34.513 420.627 33.766 419.294 32.833 L 421.894 26.993 C 423.147 27.82 424.601 28.486 426.254 28.993 C 427.907 29.5 429.534 29.753 431.134 29.753 C 434.174 29.753 435.694 28.993 435.694 27.473 C 435.694 26.673 435.261 26.08 434.394 25.693 C 433.527 25.306 432.134 24.9 430.214 24.473 C 428.107 24.02 426.347 23.533 424.934 23.013 C 423.521 22.493 422.307 21.66 421.294 20.513 C 420.281 19.366 419.774 17.82 419.774 15.873 C 419.774 14.166 420.241 12.626 421.174 11.253 C 422.107 9.88 423.501 8.793 425.354 7.993 C 427.207 7.193 429.481 6.793 432.174 6.793 C 434.014 6.793 435.827 7 437.614 7.413 C 439.401 7.826 440.974 8.433 442.334 9.233 L 439.894 15.113 C 437.227 13.673 434.641 12.953 432.134 12.953 C 430.561 12.953 429.414 13.186 428.694 13.653 C 427.974 14.12 427.614 14.726 427.614 15.473 C 427.614 16.22 428.041 16.78 428.894 17.153 C 429.747 17.526 431.121 17.913 433.014 18.313 C 435.147 18.766 436.914 19.253 438.314 19.773 C 439.714 20.293 440.927 21.12 441.954 22.253 C 442.981 23.386 443.494 24.926 443.494 26.873 C 443.494 28.553 443.027 30.073 442.094 31.433 C 441.161 32.793 439.761 33.88 437.894 34.693 C 436.027 35.506 433.761 35.913 431.094 35.913 ZM 446.761 35.353 L 446.761 13.673 L 454.361 13.673 L 454.361 35.353 L 446.761 35.353 Z M 450.561 11.273 C 449.174 11.273 448.054 10.886 447.201 10.113 C 446.347 9.34 445.921 8.38 445.921 7.233 C 445.921 6.086 446.347 5.126 447.201 4.353 C 448.054 3.58 449.174 3.193 450.561 3.193 C 451.947 3.193 453.067 3.56 453.921 4.293 C 454.774 5.026 455.201 5.966 455.201 7.113 C 455.201 8.313 454.774 9.306 453.921 10.093 C 453.067 10.88 451.947 11.273 450.561 11.273 ZM 473.394 13.313 C 476.088 13.313 478.254 14.113 479.894 15.713 C 481.534 17.313 482.354 19.726 482.354 22.953 L 482.354 35.353 L 474.754 35.353 L 474.754 24.193 C 474.754 21.233 473.568 19.753 471.194 19.753 C 469.888 19.753 468.841 20.18 468.054 21.033 C 467.268 21.886 466.874 23.166 466.874 24.873 L 466.874 35.353 L 459.274 35.353 L 459.274 13.673 L 466.514 13.673 L 466.514 16.033 C 467.368 15.153 468.381 14.48 469.554 14.013 C 470.728 13.546 472.008 13.313 473.394 13.313 ZM 503.5 13.673 L 510.74 13.673 L 510.74 31.393 C 510.74 35.42 509.647 38.44 507.46 40.453 C 505.274 42.466 502.127 43.473 498.02 43.473 C 495.887 43.473 493.887 43.233 492.02 42.753 C 490.154 42.273 488.567 41.566 487.26 40.633 L 490.02 35.313 C 490.9 36.033 492.014 36.6 493.36 37.013 C 494.707 37.426 496.034 37.633 497.34 37.633 C 499.34 37.633 500.807 37.193 501.74 36.313 C 502.674 35.433 503.14 34.126 503.14 32.393 L 503.14 31.673 C 501.674 33.38 499.527 34.233 496.7 34.233 C 494.78 34.233 493.007 33.8 491.38 32.933 C 489.754 32.066 488.46 30.84 487.5 29.253 C 486.54 27.666 486.06 25.833 486.06 23.753 C 486.06 21.7 486.54 19.88 487.5 18.293 C 488.46 16.706 489.754 15.48 491.38 14.613 C 493.007 13.746 494.78 13.313 496.7 13.313 C 499.794 13.313 502.06 14.313 503.5 16.313 L 503.5 13.673 Z M 498.5 28.193 C 499.86 28.193 500.987 27.78 501.88 26.953 C 502.774 26.126 503.22 25.06 503.22 23.753 C 503.22 22.446 502.78 21.386 501.9 20.573 C 501.02 19.76 499.887 19.353 498.5 19.353 C 497.114 19.353 495.974 19.76 495.08 20.573 C 494.187 21.386 493.74 22.446 493.74 23.753 C 493.74 25.06 494.194 26.126 495.1 26.953 C 496.007 27.78 497.14 28.193 498.5 28.193 ZM 529.726 13.313 C 532.419 13.313 534.586 14.113 536.226 15.713 C 537.866 17.313 538.686 19.726 538.686 22.953 L 538.686 35.353 L 531.086 35.353 L 531.086 24.193 C 531.086 21.233 529.899 19.753 527.526 19.753 C 526.219 19.753 525.172 20.18 524.386 21.033 C 523.599 21.886 523.206 23.166 523.206 24.873 L 523.206 35.353 L 515.606 35.353 L 515.606 5.673 L 523.206 5.673 L 523.206 15.673 C 524.032 14.9 525.006 14.313 526.126 13.913 C 527.246 13.513 528.446 13.313 529.726 13.313 Z" transform="matrix(1, 0, 0, 1, 0, 0)" style="white-space: pre;"/>
</svg>